<svg xmlns="http://www.w3.org/2000/svg" xmlns:xlink="http://www.w3.org/1999/xlink" width="18" height="18" viewBox="0 0 18 18" fill="none">
<g opacity="0.6">
<path d="M8.16669 0.666656C12.3088 0.666656 15.6667 4.02452 15.6667 8.16666C15.6667 9.9375 15.053 11.565 14.0266 12.8481L17.0893 15.9107C17.4147 16.2362 17.4147 16.7638 17.0893 17.0892C16.7638 17.4147 16.2362 17.4147 15.9108 17.0892L12.8481 14.0266C11.565 15.0529 9.93753 15.6667 8.16669 15.6667C4.02455 15.6667 0.666687 12.3088 0.666687 8.16666C0.666687 4.02452 4.02455 0.666656 8.16669 0.666656ZM8.16672 2.33336C11.3884 2.33336 14.0001 4.94503 14.0001 8.16669C14.0001 11.3884 11.3884 14 8.16672 14C4.94506 14 2.33339 11.3884 2.33339 8.16669C2.33339 4.94503 4.94506 2.33336 8.16672 2.33336Z" fill-rule="evenodd"  fill="#999999" >
</path>
</g>
</svg>
