<svg xmlns="http://www.w3.org/2000/svg" xmlns:xlink="http://www.w3.org/1999/xlink" width="18.325169563293457" height="18.329666137695312" viewBox="0 0 18.325169563293457 18.329666137695312" fill="none">
<path d="M0.329221 8.16391L2.47672 9.79058L9.97674 6.45723L4.16255 11.0397L4.16255 16.6639C4.16273 16.8347 4.2154 17.0014 4.31344 17.1412C4.41147 17.2812 4.55013 17.3876 4.71064 17.4461C4.87115 17.5045 5.04575 17.5122 5.2108 17.4682C5.37585 17.4242 5.52337 17.3304 5.63339 17.1997L8.24174 14.1006L13.6626 18.1639C13.775 18.2485 13.907 18.3032 14.0462 18.3229C14.1856 18.3427 14.3276 18.3269 14.4591 18.277C14.5907 18.2271 14.7074 18.1447 14.7985 18.0375C14.8896 17.9302 14.9521 17.8017 14.9801 17.6639L18.3134 0.997234C18.3429 0.850001 18.3321 0.697534 18.2821 0.555942C18.2321 0.414351 18.1447 0.288901 18.0293 0.192851C17.9139 0.096809 17.7747 0.033734 17.6263 0.0103006C17.4781 -0.0131327 17.3262 0.00395064 17.1867 0.059734L0.520055 6.7264C0.383338 6.78156 0.263696 6.87201 0.173338 6.98851C0.0829879 7.10501 0.025163 7.24339 0.00576296 7.38954C-0.0136412 7.53566 0.00607962 7.68441 0.0629046 7.82041C0.11973 7.95641 0.21163 8.07499 0.329221 8.16391Z"   fill="url(#linear_fill_0_440)" >
</path>
<defs>
<linearGradient id="linear_fill_0_440" x1="9.164078712463379" y1="0.000091552734375" x2="9.164078712463379" y2="18.331222534179688" gradientUnits="userSpaceOnUse">
<stop offset="0" stop-color="#6201DF"  />
<stop offset="1" stop-color="#3F96FF"  />
</linearGradient>
</defs>
</svg>
