<svg xmlns="http://www.w3.org/2000/svg" xmlns:xlink="http://www.w3.org/1999/xlink" width="13.79998779296875" height="13.800003051757812" viewBox="0 0 13.79998779296875 13.800003051757812" fill="none">
<path     fill="#AFAFAF"  d="M6 0.9L6 6L0.9 6L0.787106 6.00701C0.343337 6.06255 0 6.44118 0 6.9C0 7.39706 0.402944 7.8 0.9 7.8L6 7.8L6 12.9L6.00701 13.0129C6.06255 13.4567 6.44118 13.8 6.9 13.8C7.39706 13.8 7.8 13.3971 7.8 12.9L7.8 7.8L12.9 7.8L13.0129 7.79299C13.4567 7.73745 13.8 7.35882 13.8 6.9C13.8 6.40294 13.3971 6 12.9 6L7.8 6L7.8 0.9L7.79299 0.787106C7.73745 0.343337 7.35882 0 6.9 0C6.40294 0 6 0.402944 6 0.9">
</path>
</svg>
