<svg xmlns="http://www.w3.org/2000/svg" xmlns:xlink="http://www.w3.org/1999/xlink" width="84.97027587890625" height="78.66690063476562" viewBox="0 0 84.97027587890625 78.66690063476562" fill="none">
<path d="M36.3963 4.40024C38.7963 0.200244 44.1963 -1.26676 48.3963 1.20024C52.5963 3.60024 54.0633 9.00024 51.5963 13.2002L48.6663 18.2702C46.2663 22.4702 40.8663 23.9372 36.6663 21.4702C32.4663 19.0702 30.9993 13.6702 33.4663 9.47024L36.3963 4.40024ZM21.0664 29.4666C23.4664 25.2666 28.8664 23.8006 33.0664 26.2666C37.2664 28.6666 38.6664 34.0666 36.2664 38.2666L27.4664 53.5366C25.0664 57.7366 19.6664 59.2036 15.4664 56.7366C11.2664 54.3366 9.79939 48.9366 12.2664 44.7366L21.0664 29.4666ZM53.8034 31.4002C56.2034 27.2002 61.6034 25.7332 65.8034 28.2002C70.0034 30.6002 71.4704 36.0002 69.0034 40.2002L54.3334 65.6002C51.9334 69.8002 46.5334 71.2662 42.3334 68.8002C38.1334 66.4002 36.6664 61.0002 39.1334 56.8002L53.8034 31.4002ZM68.5998 65.4002C70.9998 61.2002 76.3998 59.7332 80.5998 62.2002C84.7998 64.6002 86.1998 69.9332 83.7998 74.2002C81.3998 78.4002 75.9998 79.8662 71.7998 77.4002C67.5998 75.0002 66.1338 69.6002 68.5998 65.4002ZM1.19979 65.4666C3.59979 61.2666 8.99979 59.8006 13.1998 62.2666C17.3998 64.6666 18.7998 70.0666 16.3998 74.2666C13.9998 78.4666 8.59979 79.9336 4.39979 77.4666C0.199786 75.0006 -1.26621 69.6666 1.19979 65.4666Z" fill-rule="evenodd"  fill="url(#linear_fill_Y_Hea2IU5w4H2rNUwx74r)" >
</path>
<defs>
<linearGradient id="linear_fill_Y_Hea2IU5w4H2rNUwx74r" x1="-0.000213623046875" y1="0.000244140625" x2="84.97024536132812" y2="78.66827392578125" gradientUnits="userSpaceOnUse">
<stop offset="0" stop-color="#FF33FF"  />
<stop offset="1" stop-color="#1C55FF"  />
</linearGradient>
</defs>
</svg>
