<svg xmlns="http://www.w3.org/2000/svg" xmlns:xlink="http://www.w3.org/1999/xlink" width="57" height="57" viewBox="0 0 57 57" fill="none">
<rect  x="0.5" y="0.5" width="56" height="56" rx="8"    fill="#EDF6FF" >
</rect>
<path   fill="rgba(208, 232, 255, 1)"  d="M8.5 0L48.5 0C53.1944 0 57 3.80558 57 8.5L57 48.5C57 53.1944 53.1944 57 48.5 57L8.5 57C3.80558 57 0 53.1944 0 48.5L0 8.5C0 3.80558 3.80558 0 8.5 0ZM8.5 1C4.35786 1 1 4.35786 1 8.5L1 48.5C1 52.6421 4.35786 56 8.5 56L48.5 56C52.6421 56 56 52.6421 56 48.5L56 8.5C56 4.35786 52.6421 1 48.5 1L8.5 1Z">
</path>
<path d="M20.5 18.5C19.9696 18.5 19.4609 18.7107 19.0858 19.0858C18.7107 19.4609 18.5 19.9696 18.5 20.5L18.5 36.5C18.5 37.0304 18.7107 37.5391 19.0858 37.9142C19.4609 38.2893 19.9696 38.5 20.5 38.5L32.5 38.5C33.0304 38.5 33.5391 38.2893 33.9142 37.9142C34.2893 37.5391 34.5 37.0304 34.5 36.5L34.5 20.5C34.5 19.9696 34.2893 19.4609 33.9142 19.0858C33.5391 18.7107 33.0304 18.5 32.5 18.5L20.5 18.5ZM36.5 20.5L36.5 36.5L37.5 36.5C37.7652 36.5 38.0196 36.3946 38.2071 36.2071C38.3946 36.0196 38.5 35.7652 38.5 35.5L38.5 21.5C38.5 21.2348 38.3946 20.9804 38.2071 20.7929C38.0196 20.6054 37.7652 20.5 37.5 20.5L36.5 20.5ZM25.6374 23.4186C25.3638 23.5312 25.1153 23.6969 24.9061 23.9061C24.6969 24.1153 24.5312 24.3638 24.4186 24.6374C24.306 24.911 24.2487 25.2042 24.25 25.5C24.25 25.945 24.382 26.38 24.6292 26.75C24.8765 27.12 25.2279 27.4084 25.639 27.5787C26.0501 27.749 26.5025 27.7936 26.939 27.7068C27.3754 27.62 27.7763 27.4057 28.091 27.091C28.4057 26.7763 28.62 26.3754 28.7068 25.939C28.7936 25.5025 28.749 25.0501 28.5787 24.639C28.4084 24.2279 28.12 23.8765 27.75 23.6292C27.38 23.382 26.945 23.25 26.5 23.25C26.2042 23.2487 25.911 23.306 25.6374 23.4186ZM31.11 33.3978C31.2194 33.3338 31.3109 33.2432 31.3758 33.1344C31.4407 33.0255 31.477 32.902 31.4812 32.7753C31.4854 32.6486 31.4575 32.523 31.4 32.41L30.5 30.6C30.365 30.2798 30.1401 30.0056 29.8527 29.8104C29.5652 29.6152 29.2274 29.5074 28.88 29.5L24.27 29.5C23.9024 29.503 23.5427 29.6072 23.2304 29.8012C22.9181 29.9953 22.6654 30.2717 22.5 30.6L21.58 32.41C21.5218 32.5245 21.4939 32.6519 21.4991 32.7802C21.5043 32.9085 21.5423 33.0334 21.6096 33.1427C21.6768 33.2521 21.771 33.3424 21.8831 33.405C21.9953 33.4675 22.1216 33.5003 22.25 33.5L30.75 33.5C30.8767 33.4969 31.0006 33.4617 31.11 33.3978Z" fill-rule="evenodd"  fill="#50A8FF" >
</path>
</svg>
