<?xml version="1.0" standalone="no"?><!DOCTYPE svg PUBLIC "-//W3C//DTD SVG 1.1//EN" "http://www.w3.org/Graphics/SVG/1.1/DTD/svg11.dtd"><svg t="1766245449701" class="icon" viewBox="0 0 1024 1024" version="1.1" xmlns="http://www.w3.org/2000/svg" p-id="1311" xmlns:xlink="http://www.w3.org/1999/xlink" width="32" height="32"><path d="M884.363636 325.818182a93.090909 93.090909 0 0 1 93.090909 93.090909v512a93.090909 93.090909 0 0 1-93.090909 93.090909H139.636364a93.090909 93.090909 0 0 1-93.090909-93.090909V418.909091a93.090909 93.090909 0 0 1 93.090909-93.090909h744.727272z m-372.363636 186.181818a93.090909 93.090909 0 0 0-46.545455 173.707636V791.272727a46.545455 46.545455 0 0 0 93.09091 0l0.046545-105.565091A93.090909 93.090909 0 0 0 512 512z" fill="#008DF0" p-id="1312"></path><path d="M512 0c175.197091 0 319.534545 127.627636 325.632 289.373091l0.186182 10.565818V372.363636h-93.090909V299.938909C744.727273 186.786909 641.489455 93.090909 512 93.090909 386.094545 93.090909 285.044364 181.620364 279.505455 290.583273L279.272727 299.938909V372.363636H186.181818V299.938909C186.181818 133.213091 333.032727 0 512 0z" fill="#008DF0" p-id="1313"></path></svg>