<svg xmlns="http://www.w3.org/2000/svg" xmlns:xlink="http://www.w3.org/1999/xlink" width="15.7774658203125" height="18.75091552734375" viewBox="0 0 15.7774658203125 18.75091552734375" fill="none">
<path d="M12.0579 17.1938C13.3375 16.1109 13.9282 14.6133 13.9282 13.4672C13.9282 13.4672 15.1493 15.45 15.5711 15.3984C15.7704 15.3727 16.0282 14.3109 15.2313 11.7469C14.8563 10.5422 14.425 9.52969 13.7618 7.87266C13.8649 3.52031 12.0555 0 7.88832 0C3.67426 0 1.90473 3.59063 2.01723 7.87266C1.3516 9.53203 0.922698 10.5375 0.547698 11.7469C-0.249177 14.3133 0.00863557 15.375 0.205511 15.3984C0.627386 15.45 1.84848 13.4672 1.84848 13.4672C1.84848 14.6156 2.4391 16.1133 3.71879 17.1938C3.10004 17.3836 1.7102 17.8945 2.04067 18.4547C2.30785 18.907 6.6391 18.743 7.88832 18.6023C9.13754 18.743 13.4688 18.907 13.736 18.4547C14.0664 17.8969 12.6743 17.3836 12.0579 17.1938Z"   fill="#0A95FF" >
</path>
</svg>
