<svg xmlns="http://www.w3.org/2000/svg" xmlns:xlink="http://www.w3.org/1999/xlink" width="57" height="57" viewBox="0 0 57 57" fill="none">
<rect  x="0.5" y="0.5" width="56" height="56" rx="8"    fill="#FFF1F1" >
</rect>
<path   fill="rgba(255, 217, 217, 1)"  d="M8.5 0L48.5 0C53.1944 0 57 3.80558 57 8.5L57 48.5C57 53.1944 53.1944 57 48.5 57L8.5 57C3.80558 57 0 53.1944 0 48.5L0 8.5C0 3.80558 3.80558 0 8.5 0ZM8.5 1C4.35786 1 1 4.35786 1 8.5L1 48.5C1 52.6421 4.35786 56 8.5 56L48.5 56C52.6421 56 56 52.6421 56 48.5L56 8.5C56 4.35786 52.6421 1 48.5 1L8.5 1Z">
</path>
<path d="M31.5 22.5L31.49 28.5C31.49 30.16 30.16 31.5 28.5 31.5C26.84 31.5 25.5 30.16 25.5 28.5L25.5 22.5C25.5 20.84 26.84 19.5 28.5 19.5C30.16 19.5 31.5 20.84 31.5 22.5ZM23.2 28.5C23.2 31.5 25.74 33.6 28.5 33.6C31.26 33.6 33.8 31.5 33.8 28.5L35.5 28.5C35.5 31.92 32.78 34.74 29.5 35.22L29.5 38.5L27.5 38.5L27.5 35.22C24.22 34.73 21.5 31.92 21.5 28.5L23.2 28.5Z" fill-rule="evenodd"  fill="#FFBBD6" >
</path>
</svg>
