<svg xmlns="http://www.w3.org/2000/svg" xmlns:xlink="http://www.w3.org/1999/xlink" width="57" height="57" viewBox="0 0 57 57" fill="none">
<rect  x="0.5" y="0.5" width="56" height="56" rx="8"    fill="#FFF9ED" >
</rect>
<path   fill="rgba(255, 239, 207, 1)"  d="M8.5 0L48.5 0C53.1944 0 57 3.80558 57 8.5L57 48.5C57 53.1944 53.1944 57 48.5 57L8.5 57C3.80558 57 0 53.1944 0 48.5L0 8.5C0 3.80558 3.80558 0 8.5 0ZM8.5 1C4.35786 1 1 4.35786 1 8.5L1 48.5C1 52.6421 4.35786 56 8.5 56L48.5 56C52.6421 56 56 52.6421 56 48.5L56 8.5C56 4.35786 52.6421 1 48.5 1L8.5 1Z">
</path>
<path d="M24 24.5C25.3807 24.5 26.5 23.3807 26.5 22C26.5 20.6193 25.3807 19.5 24 19.5C22.6193 19.5 21.5 20.6193 21.5 22C21.5 23.3807 22.6193 24.5 24 24.5ZM31.2088 27.0188C31.6091 26.5007 32.391 26.5007 32.7913 27.0188L39.2548 35.3833C39.7628 36.0406 39.2942 36.9948 38.4635 36.9948L18.601 36.9948C17.759 36.9948 17.2939 36.0177 17.8249 35.3642L22.2239 29.95C22.6241 29.4575 23.376 29.4575 23.7762 29.95L25.629 32.2304C26.0355 32.7307 26.8022 32.7214 27.1964 32.2113L31.2088 27.0188Z" fill-rule="evenodd"  fill="#FFC34E" >
</path>
</svg>
