<svg xmlns="http://www.w3.org/2000/svg" xmlns:xlink="http://www.w3.org/1999/xlink" width="22.0028076171875" height="20.490997314453125" viewBox="0 0 22.0028076171875 20.490997314453125" fill="none">
<path d="M13.7228 1.07C14 1.80722 14.0028 1.8 14.0028 1.8C14.2008 2.02007 14.5036 2.13 14.9128 2.13C16.7841 2.4711 16.7828 2.48 16.7828 2.48C18.4165 3.41528 18.4128 3.41 18.4128 3.41C19.5613 4.79641 19.5628 4.8 19.5628 4.8C19.8532 5.32816 20.0028 5.88316 20.0028 6.47C20.3196 7.44929 20.3128 7.45 20.3128 7.45C20.996 7.75809 21.0028 7.76 21.0028 7.76C21.686 7.38589 21.6828 7.38 21.6828 7.38C21.894 7.13793 22.0028 6.77414 22.0028 6.29C21.4681 3.64922 21.4628 3.65 21.4628 3.65C19.9876 1.66942 19.9928 1.67 19.9928 1.67C17.7948 0.426633 17.7928 0.43 17.7928 0.43C16.9545 0.143916 16.0565 0 15.0928 0L14.0928 0.33C13.7265 1.06722 13.7228 1.07 13.7228 1.07ZM3.37 6.841C4.03007 6.15146 4.71373 5.54649 5.42 5.011C5.42 5.011 5.41267 5.00437 7.68 3.761C8.04964 3.61429 8.46115 3.53567 8.91 3.521C8.91 3.521 8.91109 3.51893 10.02 3.761C10.152 3.92238 10.2812 4.09228 10.4 4.261C10.4 4.261 10.3924 4.25381 10.63 4.881C10.6696 5.08639 10.673 5.29028 10.64 5.481C10.64 5.481 10.6389 5.47883 10.53 6.051C10.53 6.051 10.539 6.05084 10.44 6.601C10.44 6.601 10.4404 6.60686 10.48 7.091C10.7044 7.12034 10.9188 7.10235 11.13 7.051C11.13 7.051 11.1261 7.04906 11.74 6.851C11.74 6.851 11.746 6.85407 12.35 6.601C12.35 6.601 12.3464 6.59906 12.99 6.401C13.3464 6.32764 13.7002 6.301 14.05 6.301C14.05 6.301 14.0495 6.30595 15 6.471C15 6.47098 15.0036 6.4723 15.7 6.941C15.7 6.941 15.7034 6.94576 16.04 7.771C16.0664 7.97639 16.0528 8.16495 16 8.341C16 8.341 15.9983 8.33585 15.83 8.831C15.83 8.831 15.8286 8.83786 15.69 9.311C15.69 9.31101 15.691 9.31747 15.72 9.811C15.7596 9.9137 15.8582 10.013 16.01 10.101C16.01 10.1009 16.0153 10.102 16.53 10.361C16.53 10.361 16.5362 10.3649 17.16 10.651C17.16 10.651 17.1643 10.6543 17.72 11.001C18.0764 11.3091 18.3348 11.6782 18.48 12.111C18.48 12.111 18.4718 12.1176 18.65 13.471C18.65 13.471 18.6572 13.4726 18.38 14.881C18.38 14.881 18.3739 14.8746 17.76 16.151C17.3112 16.8405 16.8077 17.4269 16.24 17.911C16.24 17.911 16.2397 17.9125 14.48 19.121C14.48 19.121 14.4717 19.1218 12.64 19.881C12.64 19.881 12.6427 19.8839 10.91 20.291C10.91 20.291 10.9154 20.286 9.46 20.451C9.46 20.451 9.46 20.458 8.46 20.491C8.46 20.491 8.45049 20.486 7.5 20.431C7.50001 20.431 7.49392 20.4289 6.19 20.211C6.19 20.211 6.18485 20.2131 4.67 19.751C4.67001 19.751 4.66674 19.7483 3.13 18.971C3.13 18.971 3.12564 18.9694 1.69 17.781C1.69 17.781 1.68842 17.7855 0.53 16.091C0.318779 15.6655 0.182607 15.2051 0.11 14.721C0.11 14.721 0.108911 14.7195 0 12.871C0 12.5482 0.0509901 12.1818 0.15 11.771C0.15 11.771 0.145248 11.7754 0.67 10.411C0.67 10.411 0.670297 10.4095 1.7 8.781C1.7 8.781 1.70663 8.77757 3.37 6.841ZM15.0864 3.521C14.55 3.74859 14.5464 3.75098 14.5464 3.751C14.3583 4.24615 14.3564 4.251 14.3564 4.251C14.5346 4.74615 14.5364 4.741 14.5364 4.741C14.6552 4.89505 14.8356 4.971 15.0864 4.971C16.885 5.73979 16.8864 5.741 16.8864 5.741C17.3352 6.25449 17.5664 6.94541 17.5664 7.811C17.7644 8.58123 17.7664 8.581 17.7664 8.581C18.1969 8.89632 18.1965 8.90093 18.1964 8.901C18.632 8.65893 18.6364 8.661 18.6364 8.661C18.7684 8.47761 18.8364 8.16113 18.8364 7.721C17.8859 4.56307 17.8764 4.571 17.8764 4.571C17.2427 3.87413 16.3141 3.521 15.0864 3.521ZM12.7297 17.8488C11.3045 18.5697 11.2997 18.5689 11.2997 18.5688C9.34921 19.0309 9.3497 19.0388 9.3497 19.0388C7.10217 19.0278 7.0997 19.0288 7.0997 19.0288C6.31422 18.9334 5.54218 18.6956 4.7897 18.3288C3.67089 17.5146 3.6697 17.5188 3.6697 17.5188C2.84792 16.3745 2.8497 16.3688 2.8497 16.3688C2.44376 15.0154 2.4497 15.0188 2.4497 15.0188C2.39029 14.542 2.42449 14.0629 2.5697 13.5788C3.32218 12.1044 3.3297 12.0988 3.3297 12.0988C4.7116 10.8136 4.71968 10.8088 4.7197 10.8088C6.7593 9.88453 6.7597 9.8788 6.7597 9.8788C7.54518 9.64406 8.4532 9.5288 9.4697 9.5288C11.0173 9.66026 11.0197 9.65882 11.0197 9.6588C12.4553 10.0879 12.4597 10.0888 12.4597 10.0888C13.6643 10.8833 13.6697 10.8888 13.6697 10.8888C14.0327 11.2262 14.3389 11.6447 14.5897 12.1288C14.9857 13.8783 14.9897 13.8788 14.9897 13.8788C14.6234 15.5073 14.6197 15.4988 14.6197 15.4988C13.7682 16.8742 13.7697 16.8788 13.7697 16.8788C13.4199 17.2896 13.0729 17.6141 12.7297 17.8488ZM10.8915 11.2881C10.8915 11.2881 10.8878 11.2939 11.5215 11.8881C11.6535 12.0642 11.7725 12.284 11.8715 12.5481C11.8715 12.5481 11.8736 12.5408 12.0815 13.3881C12.0815 13.3881 12.0818 13.3948 12.1115 14.3081C12.1115 14.3081 12.1096 14.3019 11.9215 15.1381C11.8159 15.4022 11.6833 15.6767 11.5315 15.9481C11.5314 15.948 11.5246 15.9544 10.9815 16.6981C10.9815 16.6981 10.9837 16.7009 10.2015 17.3281C10.2015 17.3281 10.2004 17.331 9.0915 17.7381C8.29942 17.8995 7.53757 17.8209 6.8115 17.4981C6.8115 17.4981 6.81447 17.4946 5.1115 15.8881C4.95308 15.3159 4.8647 14.8082 4.8515 14.3681C4.8515 14.3681 4.85467 14.3685 5.1715 12.9381C5.34312 12.542 5.60167 12.1729 5.9515 11.8281C5.9515 11.8281 5.95358 11.8243 7.1615 10.9881C7.1615 10.9881 7.15605 10.9922 8.6115 10.6181C8.6115 10.6181 8.61675 10.623 10.1415 10.8981C10.4055 11.0155 10.6539 11.1414 10.8915 11.2881ZM8.5296 14.88C8.11376 15.9143 8.1096 15.91 8.1096 15.91C7.85217 16.2181 7.47805 16.354 6.9896 16.31C6.22722 15.8479 6.2296 15.84 6.2296 15.84C6.04148 14.9267 6.0396 14.93 6.0396 14.93C6.37623 13.9947 6.3796 14 6.3796 14C6.57762 13.7066 6.85316 13.534 7.2096 13.49C8.2294 13.8531 8.2296 13.85 8.2296 13.85C8.52663 14.8733 8.5296 14.88 8.5296 14.88Z" fill-rule="evenodd"  fill="#E83A23" >
</path>
</svg>
