<svg xmlns="http://www.w3.org/2000/svg" xmlns:xlink="http://www.w3.org/1999/xlink" width="57" height="57" viewBox="0 0 57 57" fill="none">
<rect  x="0.5" y="0.5" width="56" height="56" rx="8"    fill="#ECFAF4" >
</rect>
<path   fill="rgba(205, 243, 225, 1)"  d="M8.5 0L48.5 0C53.1944 0 57 3.80558 57 8.5L57 48.5C57 53.1944 53.1944 57 48.5 57L8.5 57C3.80558 57 0 53.1944 0 48.5L0 8.5C0 3.80558 3.80558 0 8.5 0ZM8.5 1C4.35786 1 1 4.35786 1 8.5L1 48.5C1 52.6421 4.35786 56 8.5 56L48.5 56C52.6421 56 56 52.6421 56 48.5L56 8.5C56 4.35786 52.6421 1 48.5 1L8.5 1Z">
</path>
<path d="M28.5 19.5C32.366 19.5 35.5 22.634 35.5 26.5C35.5 31.4559 30.7243 35.7295 29.0622 37.0668C28.7293 37.3347 28.2707 37.3347 27.9378 37.0668C26.2757 35.7295 21.5 31.4559 21.5 26.5C21.5 22.634 24.634 19.5 28.5 19.5ZM28.5 23.5C30.1569 23.5 31.5 24.8432 31.5 26.5C31.5 28.1569 30.1569 29.5 28.5 29.5C26.8431 29.5 25.5 28.1569 25.5 26.5C25.5 24.8432 26.8431 23.5 28.5 23.5Z" fill-rule="evenodd"  fill="#46D191" >
</path>
</svg>
