<svg xmlns="http://www.w3.org/2000/svg" xmlns:xlink="http://www.w3.org/1999/xlink" width="57" height="57" viewBox="0 0 57 57" fill="none">
<rect  x="0.5" y="0.5" width="56" height="56" rx="8"    fill="#F6F1FF" >
</rect>
<path   fill="rgba(231, 217, 255, 1)"  d="M8.5 0L48.5 0C53.1944 0 57 3.80558 57 8.5L57 48.5C57 53.1944 53.1944 57 48.5 57L8.5 57C3.80558 57 0 53.1944 0 48.5L0 8.5C0 3.80558 3.80558 0 8.5 0ZM8.5 1C4.35786 1 1 4.35786 1 8.5L1 48.5C1 52.6421 4.35786 56 8.5 56L48.5 56C52.6421 56 56 52.6421 56 48.5L56 8.5C56 4.35786 52.6421 1 48.5 1L8.5 1Z">
</path>
<path d="M23.5 18.5L26.6 18.5C27.1523 18.5 27.6 18.9477 27.6 19.5L27.6 23.5C27.6 25.1016 28.8984 26.4 30.5 26.4L34.5 26.4C35.0523 26.4 35.5 26.8477 35.5 27.4L35.5 36.5C35.5 37.6046 34.6046 38.5 33.5 38.5L23.5 38.5C22.3954 38.5 21.5 37.6046 21.5 36.5L21.5 20.5C21.5 19.3954 22.3954 18.5 23.5 18.5ZM30.2536 20.2535L33.7464 23.7464C34.0614 24.0614 33.8383 24.6 33.3929 24.6L30.5 24.6C29.8925 24.6 29.4 24.1075 29.4 23.5L29.4 20.6071C29.4 20.1616 29.9386 19.9386 30.2536 20.2535ZM26 31.4C25.5029 31.4 25.1 30.9971 25.1 30.5C25.1 30.0029 25.5029 29.6 26 29.6L28.5 29.6C28.9971 29.6 29.4 30.0029 29.4 30.5C29.4 30.9971 28.9971 31.4 28.5 31.4L26 31.4ZM25.1 34C25.1 34.4971 25.5029 34.9 26 34.9L31 34.9C31.4971 34.9 31.9 34.4971 31.9 34C31.9 33.5029 31.4971 33.1 31 33.1L26 33.1C25.5029 33.1 25.1 33.5029 25.1 34Z" fill-rule="evenodd"  fill="#A772FF" >
</path>
</svg>
