<svg xmlns="http://www.w3.org/2000/svg" xmlns:xlink="http://www.w3.org/1999/xlink" width="20.40087890625" height="16.4490966796875" viewBox="0 0 20.40087890625 16.4490966796875" fill="none">
<path d="M0 6.08C0 2.68059 3.25079 0 7.22 0C10.77 0 13.8854 2.14164 14.51 5.02C14.2808 4.99508 14.0447 4.98 13.81 4.98C10.3801 4.98 7.67 7.50856 7.67 10.63C7.67 11.1489 7.74878 11.6527 7.89 12.13C7.66683 12.1477 7.44648 12.16 7.22 12.16C6.3185 12.16 5.59371 11.9766 4.69 11.8L2.17 13.05L2.89 10.9C1.08259 9.65021 0 8.04192 0 6.08ZM4.8776 3.0378C5.41858 3.0378 5.7776 3.39011 5.7776 3.9278C5.7776 4.46328 5.41858 4.8278 4.8776 4.8278C4.33602 4.8278 3.7876 4.46326 3.7876 3.9278C3.7876 3.39011 4.33602 3.0378 4.8776 3.0378ZM9.9243 4.8278C9.38272 4.8278 8.8443 4.46326 8.8443 3.9278C8.8443 3.39011 9.38275 3.0378 9.9243 3.0378C10.4681 3.0378 10.8343 3.39011 10.8343 3.9278C10.8343 4.46326 10.4681 4.8278 9.9243 4.8278ZM8.1267 10.5491C8.1267 7.69235 10.8313 5.3591 14.2667 5.3591C17.5111 5.3591 20.3967 7.69235 20.3967 10.5491C20.3967 12.1604 19.3164 13.5826 17.8667 14.6591L18.4167 16.4491L16.4367 15.3691C15.7147 15.5485 14.9854 15.7291 14.2667 15.7291C10.8313 15.7291 8.1267 13.41 8.1267 10.5491ZM13.1843 8.9308C13.1843 8.57476 12.8203 8.2208 12.2743 8.2208C11.915 8.2208 11.5543 8.57476 11.5543 8.9308C11.5543 9.29185 11.915 9.6508 12.2743 9.6508C12.8203 9.6508 13.1843 9.29185 13.1843 8.9308ZM17.1507 8.9308C17.1507 8.57476 16.7923 8.2208 16.2507 8.2208C15.8941 8.2208 15.5307 8.57476 15.5307 8.9308C15.5307 9.29185 15.8941 9.6508 16.2507 9.6508C16.7923 9.6508 17.1507 9.29185 17.1507 8.9308Z" fill-rule="evenodd"  fill="#1DCF2F" >
</path>
</svg>
