<svg xmlns="http://www.w3.org/2000/svg" xmlns:xlink="http://www.w3.org/1999/xlink" width="31.8599853515625" height="25.48999786376953" viewBox="0 0 31.8599853515625 25.48999786376953" fill="none">
<path d="M31.8646 12.7459C31.8646 13.1973 31.7123 13.5735 31.4052 13.8788L20.2525 25.0314C19.9454 25.3413 19.5694 25.4917 19.1192 25.4917C18.6633 25.4917 18.2822 25.3413 17.9808 25.0403C17.6781 24.7348 17.5262 24.3541 17.5262 23.8985C17.5262 23.4515 17.6802 23.0753 17.9861 22.7656L26.427 14.3391L1.59387 14.3391C1.15414 14.3391 0.779409 14.184 0.467348 13.8743C0.155712 13.5603 0 13.1886 0 12.7459C0 12.3076 0.155712 11.9316 0.467348 11.6217C0.779622 11.3077 1.15435 11.1526 1.59366 11.1526L26.427 11.1526L17.9861 2.72613C17.6802 2.42086 17.5262 2.04019 17.5262 1.59323C17.5262 1.13736 17.6781 0.756679 17.9808 0.455877C18.2822 0.150401 18.6633 0 19.1192 0L19.1192 0.00424863C19.5694 0.00424863 19.9456 0.155075 20.2525 0.464586L31.4052 11.613C31.7123 11.9227 31.8646 12.2989 31.8646 12.7459Z"   fill="#FFFFFF" >
</path>
</svg>
