<svg xmlns="http://www.w3.org/2000/svg" xmlns:xlink="http://www.w3.org/1999/xlink" width="22" height="22" viewBox="0 0 22 22" fill="none">
<path d="M9.94 8.65L6.56 8.65L6.56 9.36L13.16 9.36C12.984 10.031 12.69 11.035 12.25 11.97C10.666 11.409 8.778 10.931 7.7 10.92C6.963 10.909 5.556 10.966 4.5 12C4.016 12.462 3.828 12.97 3.74 13.41C3.707 13.586 3.699 13.765 3.71 13.93C3.699 14.018 3.699 14.112 3.71 14.2C3.721 14.332 3.747 14.458 3.78 14.59C3.846 14.843 3.95 15 3.95 15C3.95 14.9813 3.94346 14.9669 3.93472 14.9494C4.09913 15.2749 4.31388 15.5321 4.51 15.75C4.895 16.168 5.558 16.593 6.46 16.78C7.362 16.967 8.233 16.856 9.19 16.57C10.719 16.119 12.067 15.075 12.98 14.03C14.905 14.965 18.018 16.515 19.91 17.45C17.908 20.2 14.663 22 11 22C4.939 22 0 17.061 0 11C0 4.939 4.939 0 11 0C17.061 0 22 4.939 22 11C22 12.529 21.681 13.98 21.12 15.3C19.965 14.838 16.465 13.48 13.99 12.6C15.101 10.631 15.47 8.64 15.47 8.64L11.9 8.64L11.9 7.21L16.36 7.21L16.36 6.49L11.9 6.49L11.9 4.71L10.3 4.71C9.992 4.71 9.94 4.862 9.94 5.06L9.94 6.49L5.85 6.49L5.85 7.22L9.94 7.22L9.94 8.65ZM4.8221 15.0008C4.3161 14.4728 4.2221 13.8188 4.3321 13.2908C4.4091 12.9058 4.6881 12.5998 4.9521 12.3908C5.4031 12.1488 6.0231 11.9638 6.8921 11.9308C8.5861 11.8648 10.1861 12.5908 11.4621 13.2508C10.9011 14.0098 10.3041 14.5088 9.9521 14.7508C9.0611 15.3668 7.8821 15.9178 6.7821 15.8408C6.3751 15.8078 5.4381 15.6278 4.8221 15.0008Z" fill-rule="evenodd"  fill="#0589FC" >
</path>
</svg>
