<?xml version="1.0" standalone="no"?><!DOCTYPE svg PUBLIC "-//W3C//DTD SVG 1.1//EN" "http://www.w3.org/Graphics/SVG/1.1/DTD/svg11.dtd"><svg t="1753869836308" class="icon" viewBox="0 0 1024 1024" version="1.1" xmlns="http://www.w3.org/2000/svg" p-id="11549" xmlns:xlink="http://www.w3.org/1999/xlink" width="32" height="32"><path d="M96.850581 160.569806h65.194666a30.874151 30.874151 0 0 1 30.808086 30.808086v38.967054a4.404301 4.404301 0 0 1-4.404301 4.404301H70.435785a4.404301 4.404301 0 0 1-4.404301-4.404301v-38.967054a30.874151 30.874151 0 0 1 30.819097-30.808086z m191.829333-56.055741h437.468215c8.863656 0 16.439054 4.899785 20.061591 12.981677l62.651183 139.197935a4.316215 4.316215 0 0 0 4.007914 2.598538H948.796559a66.163613 66.163613 0 0 1 66.031484 66.031484v518.969806c0 36.357505-29.662968 66.020473-66.031484 66.020473H66.009462C29.662968 910.324989 0 880.662022 0 844.304516V325.33471c0-36.368516 29.662968-66.031484 66.020473-66.031484h135.927742a4.294194 4.294194 0 0 0 4.007914-2.598538l62.640172-139.197935a21.636129 21.636129 0 0 1 20.083613-12.992688z m219.620473 164.522666c-153.071484 0-277.20671 124.146237-277.20671 277.20671 0 153.060473 124.135226 277.195699 277.20671 277.195699S785.507097 699.314925 785.507097 546.243441c0-153.071484-124.135226-277.20671-277.20671-277.20671z m369.829161 69.059441a57.454108 57.454108 0 0 0 0 114.886194 57.443097 57.443097 0 0 0 0-114.886194z m-369.829161-11.781505c121.437591 0 219.917763 98.480172 219.917764 219.928774 0 121.437591-98.480172 219.928774-219.917764 219.928774-121.448602 0-219.928774-98.491183-219.928774-219.928774 0-121.448602 98.491183-219.928774 219.928774-219.928774z m-60.085677 95.694451c35.377548-22.957419 14.512172-47.159054-17.452043-31.171441-84.474495 42.237247-119.257462 146.14572-79.310452 229.981592 14.754409 30.951226 34.045247 30.742022 23.684129-6.958796-19.786323-72.021333 9.755527-150.759226 73.078366-191.851355z" fill="#1a1a1a" p-id="11550"></path></svg>