<?xml version="1.0" standalone="no"?><!DOCTYPE svg PUBLIC "-//W3C//DTD SVG 1.1//EN" "http://www.w3.org/Graphics/SVG/1.1/DTD/svg11.dtd"><svg t="1753868554013" class="icon" viewBox="0 0 1127 1024" version="1.1" xmlns="http://www.w3.org/2000/svg" p-id="5677" xmlns:xlink="http://www.w3.org/1999/xlink" width="35.21875" height="32"><path d="M989.541 940.667h-858.923c0 0-68.409 10.642-68.409-80.572v-737.306c0 0 1.521-82.091 85.132-82.091h301.003c0 0 36.486-7.601 66.89 39.525 28.884 45.607 45.607 74.491 45.607 74.491 0 0 10.642 12.161 34.965 12.161-21.283 0 387.655 0 387.655 0 0 0 68.409-7.601 68.409 68.409v629.371c0 0 10.642 76.012-62.33 76.012zM925.692 362.984c0-18.243-15.202-33.445-33.445-33.445h-668.896c-19.763 0-34.965 15.203-34.965 33.445v3.040c0 19.763 15.202 34.965 34.965 34.965h668.896c18.243 0 33.445-15.203 33.445-34.965v-3.040z" p-id="5678" fill="#1a1a1a"></path></svg>