<?xml version="1.0" standalone="no"?><!DOCTYPE svg PUBLIC "-//W3C//DTD SVG 1.1//EN" "http://www.w3.org/Graphics/SVG/1.1/DTD/svg11.dtd"><svg t="1753868973051" class="icon" viewBox="0 0 1024 1024" version="1.1" xmlns="http://www.w3.org/2000/svg" p-id="4217" xmlns:xlink="http://www.w3.org/1999/xlink" width="32" height="32"><path d="M898.112 961.6 125.888 961.6c-39.552 0-71.552-32.064-71.552-71.552L54.336 117.824c0-39.552 32-71.552 71.552-71.552l772.224 0c39.488 0 71.488 32 71.488 71.552l0 772.224C969.6 929.536 937.6 961.6 898.112 961.6L898.112 961.6zM926.72 618.368 926.72 117.824c0-15.872-12.864-28.608-28.608-28.608L125.888 89.216c-15.872 0-28.608 12.8-28.608 28.608l0 500.544 0 128.704L397.568 446.72l157.312 200.192 100.096 128.768 14.272-14.336L570.432 634.24l141.824-115.968 214.528 187.712L926.784 618.368 926.72 618.368zM669.12 289.408c0-39.552 31.872-71.552 71.36-71.552l0.256 0c39.488 0 71.36 32 71.36 71.552 0 39.488-31.872 71.488-71.36 71.488L740.48 360.896C700.992 360.896 669.12 328.896 669.12 289.408L669.12 289.408z" fill="#1a1a1a" p-id="4218"></path></svg>