<?xml version="1.0" standalone="no"?><!DOCTYPE svg PUBLIC "-//W3C//DTD SVG 1.1//EN" "http://www.w3.org/Graphics/SVG/1.1/DTD/svg11.dtd"><svg t="1753869079049" class="icon" viewBox="0 0 1024 1024" version="1.1" xmlns="http://www.w3.org/2000/svg" p-id="9405" xmlns:xlink="http://www.w3.org/1999/xlink" width="32" height="32"><path d="M238.933333 494.933333v17.066667c0 150.818133 122.248533 273.066667 273.066667 273.066667s273.066667-122.248533 273.066667-273.066667v-17.066667a34.133333 34.133333 0 1 1 68.266666 0v17.066667c0 176.981333-134.7072 322.525867-307.2 339.643733V955.733333h136.533334a34.133333 34.133333 0 1 1 0 68.266667H341.333333a34.133333 34.133333 0 1 1 0-68.266667h136.533334v-104.0896C305.373867 834.525867 170.666667 688.9984 170.666667 512v-17.066667a34.133333 34.133333 0 1 1 68.266666 0zM512 0c113.1008 0 204.8 91.6992 204.8 204.8v307.2c0 113.1008-91.6992 204.8-204.8 204.8S307.2 625.1008 307.2 512V204.8C307.2 91.6992 398.8992 0 512 0z" fill="#1a1a1a" p-id="9406"></path></svg>